<svg width="1206" height="30" viewBox="0 0 1206 30" fill="none" xmlns="http://www.w3.org/2000/svg">
<path d="M7.47541 28.1047C3.69773 28.1047 0 25.3863 0 19.2501C0 13.0939 3.69773 10.4155 7.47541 10.4155C9.33427 10.4155 10.7934 10.8952 11.8327 11.5748L10.6934 14.0733C9.99386 13.5736 8.9545 13.2538 7.91514 13.2538C5.63654 13.2538 3.55781 15.0527 3.55781 19.2101C3.55781 23.3676 5.6965 25.2064 7.91514 25.2064C8.9545 25.2064 9.99386 24.8866 10.6934 24.3869L11.8327 26.9454C10.7534 27.6649 9.33427 28.1047 7.47541 28.1047Z" fill="#67748E" fill-opacity="0.7"/>
<path d="M20.4874 28.1047C15.6703 28.1047 13.012 24.287 13.012 19.2501C13.012 14.2132 15.6503 10.4155 20.4874 10.4155C25.3044 10.4155 27.9628 14.1932 27.9628 19.2501C27.9628 24.287 25.3044 28.1047 20.4874 28.1047ZM20.4874 13.1538C17.809 13.1538 16.4898 15.5524 16.4898 19.2101C16.4898 22.8679 17.809 25.2864 20.4874 25.2864C23.1657 25.2864 24.4849 22.8679 24.4849 19.2101C24.4849 15.5524 23.1657 13.1538 20.4874 13.1538Z" fill="#67748E" fill-opacity="0.7"/>
<path d="M32.6 7.67712C31.4607 7.67712 30.5413 6.79766 30.5413 5.71832C30.5413 4.63898 31.4607 3.75952 32.6 3.75952C33.7393 3.75952 34.6587 4.63898 34.6587 5.71832C34.6587 6.79766 33.7193 7.67712 32.6 7.67712ZM30.8611 10.7552H34.3389V27.7448H30.8611V10.7552Z" fill="#67748E" fill-opacity="0.7"/>
<path d="M47.9706 27.7449V16.4118C47.9706 14.4331 46.7713 13.1938 44.4128 13.1938C43.1536 13.1938 41.9943 13.4137 41.2947 13.6935V27.7649H37.8568V11.6148C39.5558 10.9152 41.7344 10.4155 44.3928 10.4155C49.1499 10.4155 51.4485 12.4943 51.4485 16.092V27.7649H47.9706" fill="#67748E" fill-opacity="0.7"/>
<path d="M60.5828 28.1046C58.3842 28.1046 56.2055 27.5649 54.8663 26.9053V3H58.3042V11.195C59.1237 10.8152 60.4429 10.4954 61.6222 10.4954C65.9995 10.4954 68.9777 13.6535 68.9777 18.8503C68.9777 25.2663 65.6597 28.1046 60.5828 28.1046ZM61.0226 13.1937C60.0831 13.1937 58.9638 13.4136 58.3042 13.7534V24.9065C58.8039 25.1264 59.7833 25.3463 60.7627 25.3463C63.501 25.3463 65.5198 23.4474 65.5198 19.1101C65.5398 15.3924 63.7809 13.1937 61.0226 13.1937Z" fill="#67748E" fill-opacity="0.7"/>
<path d="M78.3319 28.1047C73.4549 28.1047 70.9764 26.1259 70.9764 22.7679C70.9764 18.0308 76.0133 17.1914 81.1502 16.9115V15.8322C81.1502 13.6935 79.7311 12.934 77.5524 12.934C75.9534 12.934 73.9946 13.4337 72.8553 13.9733L71.9758 11.6148C73.335 11.0152 75.6336 10.4155 77.9122 10.4155C81.9697 10.4155 84.4481 11.9946 84.4481 16.192V26.9054C83.2289 27.565 80.7304 28.1047 78.3319 28.1047ZM81.1702 19.2101C77.6923 19.39 74.2344 19.6898 74.2344 22.708C74.2344 24.5069 75.6136 25.6062 78.232 25.6062C79.3313 25.6062 80.6305 25.4263 81.1702 25.1665V19.2101Z" fill="#67748E" fill-opacity="0.7"/>
<path d="M92.2034 28.1047C90.2246 28.1047 88.1459 27.565 86.9066 26.9054L88.0659 24.267C88.9454 24.8067 90.8042 25.3663 92.1034 25.3663C93.9623 25.3663 95.2015 24.4469 95.2015 23.0278C95.2015 21.4887 93.9023 20.8891 92.1834 20.2495C89.9048 19.39 87.3663 18.3507 87.3663 15.1726C87.3663 12.3743 89.545 10.4155 93.3227 10.4155C95.3814 10.4155 97.0804 10.9152 98.2796 11.6148L97.2003 14.0133C96.4408 13.5336 94.9217 13.0139 93.7024 13.0139C91.9035 13.0139 90.9042 13.9534 90.9042 15.1926C90.9042 16.7316 92.1634 17.2713 93.8424 17.9109C96.2009 18.7904 98.8193 19.7698 98.8193 23.0877C98.7993 26.1059 96.4608 28.1047 92.2034 28.1047Z" fill="#67748E" fill-opacity="0.7"/>
<path d="M115.569 19.1701L104.276 20.7492C104.616 23.8073 106.615 25.3463 109.473 25.3463C111.172 25.3463 113.011 24.9266 114.17 24.307L115.169 26.8854C113.85 27.585 111.571 28.0847 109.233 28.0847C103.876 28.0847 100.878 24.6468 100.878 19.2301C100.878 14.0333 103.776 10.3955 108.533 10.3955C112.951 10.3955 115.569 13.2937 115.569 17.8709C115.609 18.2907 115.609 18.7304 115.569 19.1701ZM108.513 12.9339C105.875 12.9339 104.136 14.9527 104.076 18.4905L112.311 17.3512C112.271 14.3931 110.772 12.9339 108.513 12.9339Z" fill="#67748E" fill-opacity="0.7"/>
<path d="M276.951 26.0073H289.575C291.461 26.0073 293.009 25.2333 294.267 23.6848C295.476 22.1855 296.105 20.396 296.105 18.3651C296.105 14.2536 290.833 11.3513 288.801 11.3513H281.884C281.352 11.3513 280.916 11.1093 280.578 10.7228C280.239 10.2871 280.046 9.80375 280.046 9.223C280.046 8.54586 280.239 7.9656 280.578 7.48172C280.965 6.99833 281.449 6.7082 282.029 6.7082H294.992V1.53207H281.787C279.417 1.53207 277.578 2.25789 276.272 3.66035C275.112 4.96643 274.531 6.70771 274.531 8.7878C274.531 10.8192 275.112 12.6092 276.272 14.0593C277.578 15.6555 279.126 16.4787 281.013 16.4787H288.994C289.477 16.4787 289.865 16.6238 290.154 17.0098C290.493 17.3968 290.638 17.8807 290.638 18.4133C290.638 19.0422 290.396 19.6225 290.009 20.1063C289.574 20.5415 289.09 20.7835 288.462 20.7835H275.693L275.499 20.4447L270.711 5.06331L270.469 4.57943C269.308 2.20921 267.373 1.04868 264.713 1.04868C263.262 1.04868 261.956 1.38701 260.795 2.11282C259.585 2.83815 258.811 3.90229 258.376 5.25706L251.943 25.9586L257.795 26.0078L263.696 7.57909C263.841 6.99833 264.18 6.7082 264.615 6.7082C264.857 6.7082 265.051 6.80458 265.196 6.95014C265.341 7.1434 265.438 7.33715 265.486 7.57909L271.435 26.0078H276.951V26.0073ZM233.418 9.07793V25.9586H228V7.23978C228 4.82137 228.581 3.12828 229.838 2.11282C230.805 1.38701 232.257 1 234.288 1C235.932 1 237.335 1.48388 238.593 2.40295C239.85 3.32203 240.672 4.57943 241.108 6.12745L244.639 18.5583L245.22 20.2514C245.268 20.5897 245.461 20.8317 245.655 21.0244C245.897 21.2187 246.138 21.3156 246.429 21.2187C246.913 21.1705 247.155 20.8799 247.155 20.4447V1.58075H252.717V20.2027C252.717 22.2828 252.234 23.8313 251.218 24.9437C250.251 26.056 248.799 26.6367 246.864 26.6367C245.171 26.6367 243.768 26.2979 242.656 25.7177C241.302 25.0405 240.431 23.9764 240.044 22.573L235.981 8.4008L235.691 7.48172C235.594 7.1434 235.401 6.90146 235.159 6.65952C234.917 6.46577 234.627 6.41758 234.337 6.46577C234.047 6.51445 233.853 6.65952 233.66 6.94965C233.5 7.21206 233.417 7.5132 233.418 7.82004V9.07793ZM320 26.0073L313.712 5.06331L313.47 4.57943C312.309 2.20921 310.375 1.04868 307.714 1.04868C306.263 1.04868 304.957 1.38701 303.796 2.11282C302.586 2.83815 301.813 3.90229 301.377 5.25706L294.944 25.9586L300.797 26.0078L306.698 7.57909C306.843 6.99833 307.182 6.7082 307.617 6.7082C307.859 6.7082 308.052 6.80458 308.197 6.95014C308.343 7.1434 308.439 7.33715 308.488 7.57909L314.437 26.0078H320V26.0073Z" fill="#67748E" fill-opacity="0.7"/>
<path d="M454.613 27.0736C453.124 27.3355 451.608 27.4141 450.04 27.6233L445.259 13.5947V28.2254C443.77 28.3823 442.411 28.5917 441 28.8011V2H444.972L450.406 17.2067V2H454.613V27.0736ZM462.843 11.8149C464.463 11.8149 466.945 11.7363 468.435 11.7363V15.9239C466.58 15.9239 464.411 15.9239 462.843 16.0024V22.2317C465.299 22.0747 467.755 21.8652 470.237 21.7866V25.817L458.663 26.7333V2H470.237V6.18768H462.843V11.8149ZM485.784 6.18778H481.447V25.451C480.036 25.451 478.625 25.451 477.266 25.5032V6.18778H472.929V2H485.784L485.784 6.18778ZM492.577 11.527H498.299V15.7146H492.577V25.2155H488.475V2H500.154V6.18768H492.577V11.527ZM506.948 21.5512C509.325 21.6034 511.729 21.7869 514.055 21.9175V26.0529C510.318 25.8172 506.582 25.582 502.767 25.5032V2H506.948V21.5512ZM517.582 26.3408C518.914 26.4195 520.325 26.498 521.684 26.6548V2H517.582V26.3408ZM540 2L534.696 14.7463L540 28.8011C538.432 28.5917 536.864 28.3038 535.297 28.042L532.292 20.295L529.235 27.4141C527.72 27.1521 526.256 27.0736 524.741 26.8642L530.124 14.5891L525.264 2H529.758L532.501 9.04054L535.428 2H540Z" fill="#67748E" fill-opacity="0.7"/>
<path d="M677.027 10.7206C678.21 10.7206 679.345 9.73596 679.542 8.52119C679.775 7.33879 678.974 6.35414 677.792 6.35414C676.61 6.35414 675.475 7.33879 675.274 8.52119C675.044 9.73596 675.812 10.7206 677.027 10.7206ZM757.289 14.2351H759.934C760.297 14.2351 760.509 14.0878 760.591 13.7495C760.718 13.2255 760.848 12.7024 760.982 12.1801C761.06 11.8756 760.883 11.6448 760.545 11.6448H757.934C758.122 10.8965 758.855 8.46736 758.855 6.88367C758.855 3.72087 756.169 1.03061 752.358 1.03061C748.054 1.03061 745.255 3.91879 745.255 7.98286C745.255 9.16825 745.697 10.55 746.245 11.4071C746.009 11.3936 745.773 11.3869 745.537 11.387C742.266 11.387 740.207 13.1609 740.207 15.7421C740.207 18.1646 742.116 19.106 743.914 19.7324C745.511 20.2891 746.982 20.548 746.982 21.7957C746.982 22.637 746.173 23.1306 744.589 23.1306C742.71 23.1306 741.677 22.2457 741.415 21.9101C741.593 21.7702 741.858 21.4372 741.858 20.8823C741.858 20.1061 741.313 19.4726 740.3 19.4726C739.443 19.4726 738.719 20.1714 738.537 21.0906C737.161 22.2163 735.659 22.9459 733.529 22.9459C731.432 22.9459 730.343 21.855 730.343 19.5336C730.835 19.6834 732.115 19.8632 732.961 19.8632C736.513 19.8632 738.933 18.2496 738.933 15.0181C738.933 13.2805 737.408 11.4556 734.39 11.4556H734.383C730.414 11.4556 728.19 13.97 727.22 16.7355C726.948 16.67 726.675 16.6064 726.402 16.5448C726.619 15.9314 726.775 15.2205 726.775 14.4323C726.775 13.0664 725.929 11.4556 723.666 11.4556C722.089 11.4556 720.594 12.4883 719.557 14.0361C719.815 13.0265 719.986 12.3541 719.997 12.3091C720.065 12.045 719.955 11.7508 719.543 11.7508H717.22C716.889 11.7508 716.655 11.8678 716.561 12.2448C716.498 12.4962 715.7 15.6281 714.922 18.6776C714.433 20.579 711.901 22.9459 708.719 22.9459C706.621 22.9459 705.533 21.7832 705.533 19.461C706.082 19.6795 707.305 19.863 708.151 19.863C711.847 19.863 714.123 18.2494 714.123 15.018C714.123 13.2803 712.598 11.4555 709.579 11.4555H709.573C705.103 11.4555 702.365 14.927 701.901 18.8632C701.708 20.4995 700.327 22.7464 698.83 22.7464C698.101 22.7464 697.694 22.2883 697.694 21.5105C697.694 20.8388 698.167 19.1964 698.685 17.1381C698.859 16.4495 699.123 15.399 699.415 14.2351H701.845C702.206 14.2351 702.418 14.0878 702.501 13.7495C702.617 13.2624 702.83 12.4125 702.891 12.1801C702.969 11.8756 702.793 11.6448 702.454 11.6448H700.065C700.065 11.6448 701.165 7.25541 701.191 7.14264C701.297 6.69631 700.923 6.43876 700.533 6.52091C700.533 6.52091 698.686 6.88244 698.343 6.95387C697.999 7.02353 697.732 7.21266 697.607 7.70894L696.629 11.6448H694.711C694.349 11.6448 694.136 11.7924 694.055 12.13C693.928 12.6539 693.798 13.1771 693.665 13.6998C693.586 14.0043 693.763 14.2351 694.101 14.2351H695.983C695.969 14.2889 695.303 16.8233 694.764 19.0929C694.51 20.1844 693.661 22.7383 692.27 22.7383C691.439 22.7383 691.087 22.3191 691.087 21.4199C691.087 20.0039 692.481 16.4592 692.481 14.8507C692.481 12.7021 691.329 11.4572 688.967 11.4572C687.479 11.4572 685.935 12.4183 685.281 13.2619C685.281 13.2619 685.48 12.5714 685.548 12.3059C685.62 12.0255 685.47 11.75 685.101 11.75H682.793C682.301 11.75 682.165 12.0126 682.093 12.3015C682.064 12.4174 681.232 15.6844 680.434 18.8206C679.887 20.9681 678.56 22.7626 677.141 22.7626C676.411 22.7626 676.086 22.3047 676.086 21.5269C676.086 20.8548 676.52 19.1966 677.039 17.1384C677.669 14.6327 678.225 12.5693 678.284 12.3282C678.362 12.0193 678.224 11.7501 677.826 11.7501H675.503C675.082 11.7501 674.932 11.9709 674.843 12.2777C674.843 12.2777 674.19 14.7525 673.497 17.5075C672.994 19.5069 672.439 21.5434 672.439 22.5003C672.439 24.2078 673.206 25.4949 675.314 25.4949C676.941 25.4949 678.228 24.67 679.211 23.6188C679.067 24.1878 678.974 24.5479 678.965 24.5847C678.88 24.9099 678.983 25.1974 679.366 25.1974H681.743C682.157 25.1974 682.316 25.031 682.402 24.6702C682.486 24.3259 684.261 17.3432 684.261 17.3432C684.73 15.4675 685.891 14.2254 687.523 14.2254C688.298 14.2254 688.968 14.7381 688.89 15.7343C688.804 16.8304 687.482 20.7678 687.482 22.4959C687.482 23.8039 687.967 25.4961 690.429 25.4961C692.108 25.4961 693.343 24.6914 694.242 23.653C694.571 24.7551 695.442 25.4961 697.041 25.4961C699.698 25.4961 701.299 23.9204 702.24 22.3376C703.021 24.1765 704.849 25.4952 707.531 25.4952C710.264 25.4952 712.379 24.3431 713.878 22.7768L713.41 24.6103C713.325 24.9406 713.469 25.2002 713.857 25.2002H716.209C716.531 25.2002 716.761 25.0364 716.844 24.6981C716.886 24.5321 717.225 23.2184 717.706 21.3518C718.624 17.78 720.099 14.0743 722.317 14.0743C723.099 14.0743 723.42 14.5115 723.42 15.2002C723.42 15.525 723.325 15.8056 723.244 15.956C722.169 15.7424 721.304 16.273 721.304 17.4206C721.304 18.1683 722.091 18.8479 723.153 18.8479C723.964 18.8479 724.635 18.6489 725.17 18.2888C725.697 18.3974 726.222 18.5116 726.746 18.6315C726.666 19.1494 726.624 19.6727 726.623 20.1969C726.623 23.0638 728.67 25.4951 732.339 25.4951C735.215 25.4951 737.188 24.4432 738.891 23.0947C739.71 24.4344 741.777 25.5171 744.489 25.5171C748.207 25.5171 750.315 23.5842 750.315 21.0292C750.315 18.7166 748.417 17.8655 746.459 17.1569C744.868 16.582 743.54 16.2693 743.54 15.1446C743.54 14.2228 744.266 13.8011 745.51 13.8011C746.317 13.8011 746.923 13.9749 747.246 14.0657C747.567 14.8688 748.231 15.7581 749.364 15.7581C750.324 15.7581 750.754 14.9995 750.754 14.3009C750.754 12.3122 747.442 12.1038 747.442 7.83878C747.442 5.18669 748.942 2.99887 752.05 2.99887C754.21 2.99887 755.62 4.36828 755.62 6.57844C755.62 8.40068 754.515 11.6446 754.515 11.6446H752.636C752.275 11.6446 752.062 11.7922 751.98 12.1298C751.853 12.6538 751.723 13.1771 751.589 13.6996C751.51 14.0041 751.688 14.2349 752.026 14.2349H753.86C753.86 14.2349 751.964 21.228 751.964 22.4998C751.964 24.2073 752.927 25.494 755.035 25.494C758.018 25.494 759.881 23.5558 760.692 20.7375C760.755 20.5195 760.631 20.342 760.41 20.342H759.273C759.045 20.342 758.914 20.4715 758.856 20.6935C758.599 21.694 757.962 22.7466 756.708 22.7466C755.978 22.7466 755.572 22.2885 755.572 21.5109C755.572 20.839 756.017 19.2661 756.564 17.1384C756.825 16.1252 757.289 14.2351 757.289 14.2351ZM733.772 14.1156C734.827 14.1156 735.328 14.8172 735.328 15.6534C735.328 17.0677 734.231 17.9301 732.515 17.9301C731.901 17.9301 731.043 17.7846 730.536 17.6157C730.749 16.3151 731.69 14.1156 733.772 14.1156ZM708.962 14.1156C710.116 14.1156 710.517 14.8172 710.517 15.6534C710.517 17.0677 709.421 17.9301 707.705 17.9301C707.091 17.9301 706.233 17.7846 705.726 17.6157C705.938 16.3151 706.773 14.1156 708.962 14.1156ZM663.32 1C655.795 1 652 6.39565 652 10.8951C652 13.6195 653.031 16.0433 655.244 16.9463C655.606 17.0948 655.931 16.9514 656.037 16.5498C656.11 16.2718 656.283 15.5707 656.36 15.2785C656.466 14.8813 656.425 14.7419 656.132 14.3957C655.494 13.6433 655.087 12.6692 655.087 11.2894C655.087 7.28637 658.082 3.70275 662.886 3.70275C667.139 3.70275 669.476 6.30189 669.476 9.77308C669.476 14.3403 667.455 18.195 664.455 18.195C662.797 18.195 661.557 16.8246 661.955 15.1438C662.431 13.1371 663.353 10.9715 663.353 9.52309C663.353 8.22652 662.657 7.1451 661.217 7.1451C659.523 7.1451 658.162 8.8975 658.162 11.2451C658.162 12.7403 658.667 13.7515 658.667 13.7515C658.667 13.7515 656.933 21.0966 656.63 22.3829C656.024 24.9448 656.539 28.0852 656.582 28.4024C656.608 28.5903 656.849 28.635 656.959 28.4932C657.115 28.2893 659.132 25.7985 659.818 23.3095C660.012 22.6048 660.932 18.9557 660.932 18.9557C661.483 20.0055 663.091 20.9301 664.802 20.9301C669.894 20.9301 673.348 16.288 673.348 10.0743C673.348 5.37581 669.369 1 663.32 1Z" fill="#67748E" fill-opacity="0.7"/>
<path d="M878.362 11.4579C874.091 10.4396 873.332 9.72484 873.332 8.22301C873.332 6.80417 874.667 5.84932 876.655 5.84932C878.58 5.84932 880.488 6.57439 882.491 8.06707C882.55 8.11225 882.627 8.13027 882.7 8.11846C882.775 8.10768 882.843 8.06644 882.886 8.00445L884.972 5.06518C885.057 4.94422 885.034 4.77767 884.918 4.68477C882.535 2.773 879.853 1.84355 876.717 1.84355C872.106 1.84355 868.884 4.61064 868.884 8.56975C868.884 12.8153 871.663 14.3186 876.466 15.4791C880.55 16.4203 881.241 17.2089 881.241 18.6183C881.241 20.1807 879.847 21.1523 877.603 21.1523C875.11 21.1523 873.075 20.3106 870.801 18.3436C870.744 18.2957 870.671 18.2713 870.597 18.2757C870.52 18.2816 870.452 18.317 870.405 18.3731L868.066 21.1553C867.969 21.2734 867.98 21.4447 868.093 21.5452C870.739 23.9079 873.994 25.1543 877.508 25.1543C882.476 25.1543 885.686 22.4401 885.686 18.2373C885.695 14.6911 883.572 12.727 878.371 11.4618L878.362 11.4579ZM896.927 7.2463C894.774 7.2463 893.008 8.09453 891.549 9.83264V7.87627C891.55 7.72224 891.425 7.5968 891.271 7.59599H887.447C887.293 7.59599 887.169 7.72181 887.169 7.87627V29.614C887.169 29.7676 887.293 29.8946 887.447 29.8946H891.271C891.425 29.8946 891.549 29.7676 891.549 29.614V22.7531C893.008 24.3864 894.774 25.1868 896.927 25.1868C900.929 25.1868 904.981 22.1063 904.981 16.2174C904.987 10.3273 900.935 7.24601 896.93 7.24601L896.927 7.2463ZM900.533 16.2174C900.533 19.2149 898.687 21.3089 896.041 21.3089C893.427 21.3089 891.454 19.1204 891.454 16.2174C891.454 13.3142 893.427 11.1263 896.041 11.1263C898.643 11.126 900.533 13.2666 900.533 16.2171V16.2174ZM915.363 7.2463C910.209 7.2463 906.171 11.2146 906.171 16.2815C906.171 21.2941 910.182 25.2193 915.301 25.2193C920.472 25.2193 924.521 21.2646 924.521 16.2174C924.521 11.1874 920.499 7.24689 915.363 7.24689V7.2463ZM915.363 21.3384C912.622 21.3384 910.554 19.1351 910.554 16.2159C910.554 13.2835 912.551 11.1555 915.301 11.1555C918.059 11.1555 920.138 13.3579 920.138 16.28C920.138 19.2119 918.13 21.3384 915.363 21.3384ZM935.526 7.59599H931.317V3.29399C931.318 3.22004 931.288 3.149 931.236 3.0965C931.184 3.04399 931.114 3.01431 931.04 3.014H927.215C927.061 3.014 926.934 3.13982 926.934 3.29399V7.59599H925.097C924.944 7.59599 924.82 7.72181 924.82 7.87627V11.1626C924.82 11.3168 924.944 11.4429 925.097 11.4429H926.934V19.9473C926.934 23.3822 928.644 25.1247 932.02 25.1247C933.391 25.1247 934.528 24.8412 935.6 24.2328C935.688 24.1855 935.741 24.091 935.741 23.9906V20.86C935.741 20.7654 935.691 20.6739 935.609 20.6237C935.527 20.5713 935.423 20.5668 935.337 20.6119C934.601 20.981 933.89 21.1523 933.092 21.1523C931.867 21.1523 931.317 20.5941 931.317 19.3478V11.4443H935.526C935.679 11.4443 935.803 11.3185 935.803 11.1641V7.87805C935.806 7.80395 935.778 7.73205 935.726 7.6791C935.674 7.62614 935.603 7.59675 935.529 7.59776L935.526 7.59599ZM950.187 7.61282V7.08445C950.187 5.53005 950.783 4.83687 952.118 4.83687C952.916 4.83687 953.557 4.99518 954.274 5.23441C954.363 5.26217 954.455 5.24829 954.525 5.19542C954.598 5.14277 954.641 5.058 954.641 4.96801V1.74579C954.642 1.62214 954.561 1.51255 954.443 1.47732C953.687 1.25197 952.718 1.02071 951.265 1.02071C947.735 1.02071 945.866 3.00957 945.866 6.7702V7.57945H944.029C943.875 7.57945 943.748 7.70527 943.748 7.85944V11.1626C943.748 11.3168 943.875 11.4429 944.029 11.4429H945.866V24.5577C945.866 24.7142 945.993 24.8383 946.146 24.8383H949.968C950.125 24.8383 950.249 24.7142 950.249 24.5577V11.4438H953.82L959.289 24.5577C958.669 25.934 958.058 26.2087 957.225 26.2087C956.552 26.2087 955.84 26.0078 955.116 25.6091C955.048 25.5745 954.968 25.5671 954.895 25.5884C954.821 25.615 954.759 25.6682 954.729 25.7391L953.433 28.5832C953.371 28.7191 953.424 28.8756 953.554 28.9465C954.906 29.679 956.126 29.992 957.635 29.992C960.459 29.992 962.021 28.6748 963.395 25.1366L970.028 7.99559C970.063 7.90948 970.052 7.81145 969.999 7.73539C969.948 7.65931 969.863 7.61363 969.771 7.61371H965.79C965.669 7.61371 965.562 7.68961 965.524 7.80155L961.445 19.4482L956.98 7.79387C956.939 7.68574 956.835 7.61407 956.72 7.61371H950.187V7.61282ZM941.687 7.59599H937.862C937.708 7.59599 937.581 7.72181 937.581 7.87627V24.5577C937.581 24.7142 937.708 24.8383 937.862 24.8383H941.687C941.84 24.8383 941.967 24.7142 941.967 24.5577V7.87745C941.968 7.80302 941.938 7.73159 941.885 7.67899C941.833 7.62638 941.761 7.59694 941.687 7.59717V7.59599ZM939.797 0C938.281 0 937.053 1.22627 937.053 2.7411C937.053 4.25681 938.281 5.48457 939.797 5.48457C941.312 5.48457 942.537 4.25681 942.537 2.7411C942.537 1.22657 941.309 0 939.797 0ZM973.295 12.9598C971.782 12.9598 970.604 11.7444 970.604 10.2686C970.604 8.79273 971.797 7.5635 973.309 7.5635C974.822 7.5635 976 8.77855 976 10.2532C976 11.7291 974.807 12.9598 973.295 12.9598ZM973.309 7.83109C971.93 7.83109 970.888 8.92682 970.888 10.2686C970.888 11.6097 971.924 12.6907 973.295 12.6907C974.674 12.6907 975.716 11.5959 975.716 10.2532C975.716 8.91205 974.68 7.83109 973.309 7.83109ZM973.906 10.53L974.668 11.5956H974.024L973.339 10.618H972.751V11.5956H972.214V8.77087H973.472C974.13 8.77087 974.562 9.10668 974.562 9.67197C974.565 10.1351 974.296 10.418 973.909 10.53H973.906ZM973.451 9.25554H972.751V10.149H973.451C973.8 10.149 974.009 9.97795 974.009 9.7018C974.009 9.41118 973.8 9.25554 973.451 9.25554Z" fill="#67748E" fill-opacity="0.7"/>
<path d="M1077.2 26.2629L1070 9.05618H1074.71L1079.21 20.4817L1083.57 9.05618H1088.06L1081.06 26.2629H1077.2ZM1100.59 17.574C1100.6 16.8819 1100.51 16.192 1100.34 15.5215C1100.2 14.9281 1099.94 14.3673 1099.59 13.8681C1099.27 13.4156 1098.86 13.0381 1098.38 12.7621C1097.87 12.4738 1097.29 12.328 1096.71 12.3402C1096.12 12.3275 1095.54 12.4732 1095.03 12.7621C1094.55 13.0355 1094.13 13.4134 1093.81 13.8681C1093.46 14.3716 1093.21 14.9364 1093.07 15.5329C1092.9 16.1997 1092.81 16.8857 1092.82 17.574C1092.81 18.2661 1092.9 18.9561 1093.07 19.6265C1093.21 20.218 1093.45 20.781 1093.79 21.2913C1094.43 22.269 1095.52 22.8501 1096.69 22.8306C1097.86 22.8662 1098.97 22.2808 1099.59 21.2913C1099.94 20.7893 1100.19 20.2294 1100.34 19.6379C1100.52 18.9638 1100.6 18.27 1100.59 17.574ZM1104.94 17.5854C1104.94 18.7075 1104.76 19.8229 1104.42 20.8922C1104.09 21.9471 1103.57 22.9325 1102.89 23.7999C1101.39 25.6761 1099.1 26.7338 1096.71 26.6505C1094.31 26.7283 1092.01 25.6721 1090.51 23.7999C1089.83 22.9315 1089.31 21.9464 1088.97 20.8922C1088.3 18.7514 1088.3 16.4536 1088.97 14.3128C1089.31 13.2692 1089.83 12.2953 1090.51 11.4393C1091.21 10.5828 1092.09 9.88992 1093.08 9.40967C1094.21 8.87297 1095.45 8.60749 1096.71 8.63428C1099.08 8.56853 1101.36 9.60351 1102.87 11.4393C1103.56 12.2831 1104.08 13.241 1104.42 14.3128C1104.77 15.3847 1104.94 16.4793 1104.94 17.5854ZM1118.23 12.8533C1117.48 12.535 1116.67 12.361 1115.85 12.3402C1114.55 12.2772 1113.3 12.8781 1112.54 13.9365C1112.18 14.4371 1111.91 14.9966 1111.75 15.5899C1111.57 16.2013 1111.48 16.8349 1111.48 17.4714C1111.48 18.1621 1111.56 18.8509 1111.71 19.5239C1111.85 20.1318 1112.09 20.7108 1112.43 21.2343C1112.74 21.716 1113.15 22.1215 1113.64 22.4201C1114.12 22.7166 1114.7 22.8763 1115.35 22.8763C1115.94 22.8632 1116.51 22.7066 1117.02 22.4201C1117.52 22.1884 1117.93 21.8254 1118.23 21.3711V12.8533ZM1118.59 26.2629L1118.42 24.9401C1117.96 25.4337 1117.42 25.8395 1116.82 26.1374C1115.05 26.8925 1113.04 26.8087 1111.35 25.9094C1110.45 25.4154 1109.67 24.7303 1109.07 23.9025C1108.43 23.032 1107.95 22.0552 1107.65 21.0176C1107.33 19.9057 1107.17 18.754 1107.17 17.5968C1107.17 16.4679 1107.33 15.3733 1107.66 14.3014C1107.98 13.2608 1108.5 12.2899 1109.18 11.4393C1110.67 9.59184 1112.94 8.55282 1115.31 8.63428C1116.23 8.63428 1117.2 8.80533 1118.23 9.136V2.46542H1122.66V26.2629H1118.59ZM1135.11 18.1897C1134.13 18.2551 1133.16 18.3769 1132.2 18.5546C1131.24 18.7485 1130.58 19.0678 1130.21 19.5353C1129.85 19.9623 1129.66 20.4982 1129.66 21.0518C1129.66 21.622 1129.86 22.0781 1130.29 22.4201C1130.8 22.7941 1131.42 22.9795 1132.05 22.9447C1132.62 22.9447 1133.19 22.8306 1133.73 22.5912C1134.24 22.3699 1134.7 22.0655 1135.11 21.6904V18.1897ZM1135.46 26.2401L1135.29 24.9629C1134.79 25.5105 1134.16 25.9356 1133.47 26.2058C1132.01 26.7841 1130.38 26.8085 1128.91 26.2743C1126.73 25.548 1125.28 23.4841 1125.34 21.1887C1125.31 19.662 1126 18.2099 1127.2 17.2661C1127.79 16.8006 1128.46 16.4278 1129.17 16.1601C1130.53 15.6784 1131.94 15.3719 1133.38 15.2479L1135.09 15.0882V14.8374C1135.09 13.8909 1134.84 13.2182 1134.35 12.8077C1133.76 12.3734 1133.04 12.1594 1132.32 12.2033C1131.02 12.2098 1129.76 12.6161 1128.71 13.3664C1128.48 13.5125 1128.26 13.6724 1128.05 13.8453L1126.58 10.7438C1127.29 10.2085 1128.06 9.77118 1128.88 9.44388C1131.03 8.55293 1133.41 8.40049 1135.65 9.01057C1137.21 9.49838 1138.45 10.6817 1139.02 12.2147C1139.36 13.1685 1139.53 14.1777 1139.5 15.1908V26.2515L1135.46 26.2401ZM1153.17 6.38795C1152.38 6.0351 1151.53 5.86365 1150.66 5.88623C1150.06 5.88623 1149.53 6.06868 1149.12 6.44497C1148.7 6.80985 1148.5 7.4142 1148.5 8.24659V9.05618H1152.21V12.6252H1148.53V26.2629H1144.11V12.6252H1141.83V9.05618H1144.11V8.14397C1144.11 7.0151 1144.25 6.06868 1144.54 5.29329C1145.01 3.88474 1146.12 2.78426 1147.54 2.32859C1149.57 1.786 1151.72 1.91806 1153.67 2.70488L1153.17 6.38795ZM1165.24 17.574C1165.24 16.882 1165.15 16.1924 1164.98 15.5215C1164.84 14.9281 1164.58 14.3673 1164.23 13.8681C1163.91 13.4156 1163.5 13.0381 1163.02 12.7621C1162.51 12.4738 1161.93 12.328 1161.35 12.3402C1160.76 12.3275 1160.18 12.4732 1159.67 12.7621C1159.19 13.0374 1158.77 13.4149 1158.45 13.8681C1158.1 14.3727 1157.85 14.9369 1157.7 15.5329C1157.35 16.8792 1157.35 18.2916 1157.7 19.6379C1157.85 20.2255 1158.1 20.7842 1158.43 21.2913C1158.74 21.7617 1159.16 22.1523 1159.65 22.4316C1160.17 22.7127 1160.75 22.8541 1161.35 22.842C1162.52 22.8711 1163.61 22.2816 1164.23 21.2913C1164.58 20.7893 1164.83 20.2294 1164.98 19.6379C1165.16 18.9634 1165.24 18.2698 1165.24 17.574ZM1169.58 17.5854C1169.58 18.7077 1169.41 19.8234 1169.07 20.8922C1168.74 21.9479 1168.21 22.9336 1167.53 23.7999C1166.04 25.6761 1163.74 26.7338 1161.35 26.6505C1158.95 26.7283 1156.66 25.6721 1155.16 23.7999C1154.47 22.9315 1153.95 21.9464 1153.62 20.8922C1152.93 18.7528 1152.93 16.4522 1153.62 14.3128C1153.95 13.27 1154.46 12.2962 1155.14 11.4393C1155.84 10.5815 1156.72 9.88851 1157.72 9.40967C1158.85 8.87297 1160.09 8.60749 1161.35 8.63428C1163.73 8.56853 1166 9.60351 1167.52 11.4393C1168.2 12.2831 1168.72 13.241 1169.07 14.3128C1169.41 15.3847 1169.58 16.4793 1169.58 17.5854ZM1183.32 26.2629V16.4565C1183.39 15.3791 1183.1 14.3091 1182.5 13.412C1181.96 12.7052 1181.11 12.3054 1180.22 12.3402C1179.54 12.3324 1178.88 12.5183 1178.3 12.8761C1177.75 13.2092 1177.24 13.6074 1176.79 14.062V26.2629H1172.36V9.05618H1176.4L1176.6 10.4245C1178 9.26404 1179.75 8.6303 1181.56 8.63427C1182.48 8.63427 1183.31 8.77112 1184.07 9.04478C1184.82 9.31411 1185.49 9.76015 1186.02 10.3447C1186.58 10.9376 1187 11.713 1187.3 12.6594C1187.6 13.6173 1187.74 14.7575 1187.74 16.0802V26.2629H1183.32ZM1201.51 15.5899C1201.47 15.0548 1201.35 14.5297 1201.13 14.0392C1200.95 13.635 1200.7 13.2704 1200.38 12.9673C1199.83 12.4559 1199.1 12.171 1198.35 12.1691C1197.54 12.1837 1196.76 12.487 1196.16 13.0243C1195.42 13.6804 1194.98 14.6053 1194.94 15.5899H1201.51ZM1194.84 18.7713C1194.93 20.2194 1195.38 21.2685 1196.21 21.907C1197.11 22.5791 1198.22 22.9211 1199.34 22.8763C1200.39 22.875 1201.44 22.6818 1202.42 22.3061C1202.78 22.1632 1203.13 21.9956 1203.47 21.8044C1203.7 21.6735 1203.91 21.5166 1204.11 21.3369L1205.29 24.9401C1204.62 25.3941 1203.89 25.7475 1203.12 25.9892C1201.7 26.4221 1200.24 26.6449 1198.76 26.6506C1197.67 26.6544 1196.59 26.4731 1195.57 26.1146C1194.57 25.7668 1193.66 25.2021 1192.91 24.4612C1192.11 23.6632 1191.49 22.7079 1191.09 21.6562C1190.6 20.3822 1190.37 19.0272 1190.4 17.6652C1190.4 16.2057 1190.62 14.9286 1191.03 13.8111C1192.08 10.6668 1195.05 8.5692 1198.36 8.63428C1199.4 8.62392 1200.43 8.80561 1201.4 9.17021C1202.33 9.5237 1203.13 10.0824 1203.8 10.8236C1204.48 11.5762 1205.02 12.5454 1205.41 13.7427C1205.81 14.9286 1206 16.3425 1206 17.9845V18.7713H1194.84Z" fill="#707780"/>
</svg>
