<svg width="25" height="25" viewBox="0 0 25 25" fill="none" xmlns="http://www.w3.org/2000/svg">
<path d="M24.6094 8.59375V4.6875C24.6094 4.04023 24.0848 3.51562 23.4375 3.51562H1.5625C0.915234 3.51562 0.390625 4.04023 0.390625 4.6875V8.59375H24.6094Z" fill="#21D4FD" fill-opacity="0.6"/>
<path d="M0.390625 12.1094V20.3125C0.390625 20.9598 0.915234 21.4844 1.5625 21.4844H23.4375C24.0848 21.4844 24.6094 20.9598 24.6094 20.3125V12.1094H0.390625ZM9.375 17.5781H3.90625C3.69062 17.5781 3.51562 17.4031 3.51562 17.1875C3.51562 16.9719 3.69062 16.7969 3.90625 16.7969H9.375C9.59062 16.7969 9.76562 16.9719 9.76562 17.1875C9.76562 17.4031 9.59062 17.5781 9.375 17.5781ZM21.0937 17.5781H19.5312C19.3156 17.5781 19.1406 17.4031 19.1406 17.1875C19.1406 16.9719 19.3156 16.7969 19.5312 16.7969H21.0937C21.3094 16.7969 21.4844 16.9719 21.4844 17.1875C21.4844 17.4031 21.3094 17.5781 21.0937 17.5781Z" fill="#2152FF"/>
</svg>
