<svg width="25" height="25" viewBox="0 0 25 25" fill="none" xmlns="http://www.w3.org/2000/svg">
<path d="M24.5967 0H13.3064C13.0834 0 12.9032 0.199554 12.9032 0.446429V12.0536C12.9032 12.2254 12.9923 12.3812 13.1314 12.4558C13.1875 12.4857 13.2471 12.5 13.3064 12.5C13.3963 12.5 13.4855 12.467 13.5584 12.4022L17.4802 8.92857H24.5967C24.8197 8.92857 25 8.72902 25 8.48214V0.446429C25 0.199554 24.8197 0 24.5967 0Z" fill="#21D4FD" fill-opacity="0.6"/>
<path d="M6.85486 15.1785C8.85912 15.1785 10.4839 13.3797 10.4839 11.1607C10.4839 8.94168 8.85912 7.14282 6.85486 7.14282C4.8506 7.14282 3.22583 8.94168 3.22583 11.1607C3.22583 13.3797 4.8506 15.1785 6.85486 15.1785Z" fill="#2152FF"/>
<path d="M11.9315 17.926C10.9048 17.4871 9.19073 16.9644 6.85484 16.9644C4.51895 16.9644 2.80484 17.4871 1.77823 17.926C0.714516 18.3804 0 19.5478 0 20.8313V24.5536C0 24.8005 0.180242 25.0001 0.403226 25.0001H13.3065C13.5294 25.0001 13.7097 24.8005 13.7097 24.5536V20.8313C13.7097 19.5478 12.9952 18.3804 11.9315 17.926Z" fill="#2152FF"/>
</svg>
