<svg width="18" height="18" viewBox="0 0 18 18" fill="none" xmlns="http://www.w3.org/2000/svg">
<path d="M9 0.53125C4.18359 0.53125 0.28125 4.46875 0.28125 9.25C0.28125 14.0664 4.18359 17.9688 9 17.9688C13.7812 17.9688 17.7188 14.0664 17.7188 9.25C17.7188 4.46875 13.7812 0.53125 9 0.53125ZM6.50391 13.6094C4.07812 13.6094 2.14453 11.6758 2.14453 9.25C2.14453 6.85938 4.07812 4.89062 6.50391 4.89062C7.59375 4.89062 8.61328 5.27734 9.42188 6.05078L8.22656 7.17578C7.76953 6.71875 7.13672 6.50781 6.50391 6.50781C4.99219 6.50781 3.79688 7.77344 3.79688 9.25C3.79688 10.7617 4.99219 11.9922 6.50391 11.9922C7.62891 11.9922 8.78906 11.3242 8.96484 10.1289H6.50391V8.65234H10.6172C10.6523 8.86328 10.6875 9.10938 10.6875 9.35547C10.6875 11.8516 9 13.6094 6.50391 13.6094ZM14.5898 9.88281V11.1484H13.3594V9.88281H12.0938V8.65234H13.3594V7.38672H14.5898V8.65234H15.8203V9.88281H14.5898Z" fill="white"/>
</svg>
