<svg width="25" height="25" viewBox="0 0 25 25" fill="none" xmlns="http://www.w3.org/2000/svg">
<path d="M11.6448 3.71108C9.83903 3.31111 7.95293 3.49469 6.25822 4.23538C4.5635 4.97607 3.14767 6.23562 2.21469 7.83256C2.17118 7.90707 2.15355 7.99389 2.16458 8.07946C2.1756 8.16504 2.21465 8.24456 2.27563 8.30561L4.81469 10.8447C6.61432 8.05196 8.93289 5.63035 11.6448 3.71108Z" fill="#21D4FD" fill-opacity="0.6"/>
<path d="M21.2891 13.3555C21.6891 15.1612 21.5055 17.0473 20.7648 18.742C20.0241 20.4367 18.7646 21.8526 17.1676 22.7855C17.0931 22.8291 17.0063 22.8467 16.9207 22.8357C16.8351 22.8246 16.7556 22.7856 16.6946 22.7246L14.1555 20.1855C16.9482 18.3859 19.3698 16.0673 21.2891 13.3555Z" fill="#21D4FD" fill-opacity="0.6"/>
<path d="M6.23056 18.7695C5.7173 18.2575 5.02193 17.97 4.29697 17.97C3.57201 17.97 2.87663 18.2575 2.36338 18.7695C1.10439 20.0281 0.795017 23.6429 0.781345 23.7961C0.776908 23.85 0.783722 23.9042 0.801356 23.9554C0.81899 24.0066 0.84706 24.0535 0.883784 24.0932C0.920509 24.133 0.965089 24.1646 1.0147 24.1862C1.06431 24.2078 1.11786 24.2189 1.17197 24.2187C1.18252 24.2187 1.19345 24.2187 1.204 24.2187C1.35713 24.2062 4.97197 23.8968 6.23056 22.6379C6.74292 22.1245 7.03067 21.4289 7.03067 20.7037C7.03067 19.9784 6.74292 19.2828 6.23056 18.7695Z" fill="#2152FF"/>
<path d="M22.2722 9.21872C23.4158 6.68864 24.076 3.96696 24.2187 1.19411C24.2219 1.13935 24.2134 1.08454 24.194 1.03326C24.1745 0.981973 24.1445 0.935359 24.1058 0.896451C24.0669 0.857518 24.0203 0.827154 23.969 0.807308C23.9177 0.787463 23.8628 0.778575 23.8078 0.781217C21.027 0.910565 18.2955 1.56283 15.7562 2.70387L22.2722 9.21872Z" fill="#2152FF"/>
<path d="M15.0109 3.06348C7.30388 6.9209 4.25544 14.2557 4.21638 14.3525C4.18785 14.4236 4.18081 14.5014 4.19616 14.5764C4.21151 14.6515 4.24856 14.7203 4.30271 14.7744L10.2254 20.6975C10.2798 20.7519 10.3491 20.7891 10.4245 20.8043C10.5 20.8196 10.5783 20.8121 10.6496 20.783C10.7461 20.7439 18.0453 17.66 21.9117 9.96269L15.0109 3.06348ZM13.6718 13.6721C13.2083 13.6721 12.7552 13.5346 12.3697 13.2771C11.9843 13.0195 11.6839 12.6535 11.5065 12.2252C11.3291 11.797 11.2827 11.3257 11.3731 10.8711C11.4636 10.4164 11.6868 9.99882 12.0146 9.67104C12.3423 9.34326 12.76 9.12004 13.2146 9.0296C13.6692 8.93917 14.1405 8.98558 14.5688 9.16298C14.997 9.34037 15.3631 9.64077 15.6206 10.0262C15.8781 10.4116 16.0156 10.8648 16.0156 11.3283C16.0156 11.9499 15.7687 12.5461 15.3291 12.9856C14.8896 13.4251 14.2934 13.6721 13.6718 13.6721Z" fill="#2152FF"/>
</svg>
