<svg width="28" height="23" viewBox="0 0 28 23" fill="none" xmlns="http://www.w3.org/2000/svg">
<g clip-path="url(#clip0_5_1921)">
<path d="M26.1747 1.38501H1.79971C1.28116 1.38501 0.862213 1.80396 0.862213 2.32251V21.0725C0.862213 21.5911 1.28116 22.01 1.79971 22.01H26.1747C26.6933 22.01 27.1122 21.5911 27.1122 21.0725V2.32251C27.1122 1.80396 26.6933 1.38501 26.1747 1.38501ZM25.0028 4.6311V19.9006H2.97159V4.6311L2.16299 4.00122L3.31436 2.52173L4.56827 3.49731H23.4091L24.663 2.52173L25.8144 4.00122L25.0028 4.6311ZM23.4091 3.49438L13.9872 10.8186L4.56534 3.49438L3.31143 2.5188L2.16006 3.99829L2.96866 4.62817L12.9765 12.4094C13.2643 12.633 13.6184 12.7544 13.9828 12.7544C14.3473 12.7544 14.7014 12.633 14.9892 12.4094L25.0028 4.6311L25.8114 4.00122L24.6601 2.52173L23.4091 3.49438Z" fill="#EF2779"/>
</g>
<defs>
<clipPath id="clip0_5_1921">
<rect width="27" height="22" fill="white" transform="translate(0.862213 0.69751)"/>
</clipPath>
</defs>
</svg>
