<svg width="42" height="42" viewBox="0 0 42 42" fill="none" xmlns="http://www.w3.org/2000/svg">
<path d="M36.0725 5.18042H6.61341C5.90495 5.18042 5.33258 5.75279 5.33258 6.46125V35.9204C5.33258 36.6288 5.90495 37.2012 6.61341 37.2012H36.0725C36.781 37.2012 37.3534 36.6288 37.3534 35.9204V6.46125C37.3534 5.75279 36.781 5.18042 36.0725 5.18042ZM32.3741 14.5265H29.8165C27.8112 14.5265 27.4229 15.4791 27.4229 16.88V19.966H32.21L31.5856 24.7971H27.4229V37.2012H22.4317V24.8012H18.257V19.966H22.4317V16.4037C22.4317 12.269 24.9573 10.0156 28.6477 10.0156C30.4169 10.0156 31.9338 10.1476 32.3781 10.2077V14.5265H32.3741Z" fill="#EF2779"/>
</svg>
