<svg width="42" height="42" viewBox="0 0 42 42" fill="none" xmlns="http://www.w3.org/2000/svg">
<path d="M36.0603 5.18042H6.6012C5.89274 5.18042 5.32037 5.75279 5.32037 6.46125V35.9204C5.32037 36.6288 5.89274 37.2012 6.6012 37.2012H36.0603C36.7688 37.2012 37.3412 36.6288 37.3412 35.9204V6.46125C37.3412 5.75279 36.7688 5.18042 36.0603 5.18042ZM14.8185 32.4661H10.0675V17.1842H14.8185V32.4661ZM12.445 15.0949C11.9003 15.0949 11.3679 14.9333 10.9151 14.6308C10.4622 14.3282 10.1093 13.8981 9.90083 13.3949C9.6924 12.8917 9.63787 12.338 9.74412 11.8038C9.85038 11.2696 10.1127 10.779 10.4978 10.3938C10.8829 10.0087 11.3736 9.74645 11.9078 9.64019C12.4419 9.53394 12.9956 9.58847 13.4988 9.7969C14.002 10.0053 14.4321 10.3583 14.7347 10.8111C15.0373 11.264 15.1988 11.7964 15.1988 12.3411C15.1948 13.8621 13.962 15.0949 12.445 15.0949ZM32.6061 32.4661H27.859V25.0333C27.859 23.2602 27.827 20.9827 25.3894 20.9827C22.9198 20.9827 22.5395 22.9119 22.5395 24.9052V32.4661H17.7965V17.1842H22.3514V19.2736H22.4155C23.0479 18.0728 24.5969 16.804 26.9104 16.804C31.7215 16.804 32.6061 19.97 32.6061 24.0847V32.4661Z" fill="#EF2779"/>
</svg>
