<svg width="18" height="18" viewBox="0 0 18 18" fill="none" xmlns="http://www.w3.org/2000/svg">
<path d="M5.09449 10.2387L7.7257 7.60752L1.9705 1.86162C1.52422 1.41534 0.752522 1.53621 0.473595 2.11266C-0.186532 3.49799 0.0552049 5.19945 1.19881 6.35234L5.09449 10.2387ZM11.3982 8.55587C12.8208 9.21599 14.8197 8.75112 16.298 7.2728C18.0739 5.49697 18.4179 2.94944 17.0512 1.5827C15.6937 0.225251 13.1462 0.559964 11.361 2.3358C9.88273 3.81411 9.41785 5.81309 10.078 7.23561L1.65439 15.6592C1.48054 15.833 1.38288 16.0688 1.38288 16.3147C1.38288 16.5605 1.48054 16.7963 1.65439 16.9702C1.82823 17.144 2.06401 17.2417 2.30986 17.2417C2.55572 17.2417 2.7915 17.144 2.96534 16.9702L8.72053 11.2336L14.4664 16.9795C14.5525 17.0655 14.6547 17.1338 14.7672 17.1804C14.8796 17.227 15.0002 17.251 15.1219 17.251C15.2436 17.251 15.3642 17.227 15.4766 17.1804C15.5891 17.1338 15.6913 17.0655 15.7774 16.9795C15.8635 16.8934 15.9317 16.7912 15.9783 16.6787C16.0249 16.5663 16.0489 16.4457 16.0489 16.324C16.0489 16.2022 16.0249 16.0817 15.9783 15.9692C15.9317 15.8568 15.8635 15.7546 15.7774 15.6685L10.0315 9.92261L11.3982 8.55587V8.55587Z" fill="white"/>
</svg>
