<svg width="16" height="17" viewBox="0 0 16 17" fill="none" xmlns="http://www.w3.org/2000/svg">
<path d="M14.1875 0.375H1.8125C0.863281 0.375 0.125 1.14844 0.125 2.0625V14.4375C0.125 15.3867 0.863281 16.125 1.8125 16.125H6.62891V10.7812H4.41406V8.25H6.62891V6.35156C6.62891 4.17188 7.92969 2.94141 9.89844 2.94141C10.8828 2.94141 11.8672 3.11719 11.8672 3.11719V5.26172H10.7773C9.6875 5.26172 9.33594 5.92969 9.33594 6.63281V8.25H11.7617L11.375 10.7812H9.33594V16.125H14.1875C15.1016 16.125 15.875 15.3867 15.875 14.4375V2.0625C15.875 1.14844 15.1016 0.375 14.1875 0.375Z" fill="white"/>
</svg>
